<svg width="100" height="100" viewbox="0 0 100 100">
  <path d="M18.546 53.038a4 4 0 0 1 0-6.075L31.648 35.74c2.595-2.223 6.602-.38 6.602 3.038v22.45c0 3.417-4.008 5.26-6.602 3.038L18.546 53.038zM15 18.443C15 16.54 16.644 15 18.672 15h63.655C84.356 15 86 16.54 86 18.443s-1.644 3.443-3.672 3.443H18.672c-2.028 0-3.672-1.54-3.672-3.443zm0 63.114c0-1.9 1.644-3.443 3.672-3.443h63.655c2.028 0 3.672 1.54 3.672 3.443S84.356 85 82.328 85H18.672C16.644 85 15 83.46 15 81.557zm37.948-20.655c0-1.9 1.644-3.443 3.672-3.443h25.707C84.356 57.46 86 59 86 60.902s-1.644 3.443-3.672 3.443H56.62c-2.028 0-3.672-1.54-3.672-3.443zm0-22.952c0-1.9 1.644-3.443 3.672-3.443h25.707c2.028 0 3.672 1.54 3.672 3.443s-1.644 3.443-3.672 3.443H56.62c-2.028 0-3.672-1.54-3.672-3.443z"/>
</svg>