<svg width="100" height="100" viewBox="0 0 100 100" fill="none" xmlns="http://www.w3.org/2000/svg">
<path d="M24.6429 51.2233C23.7857 50.4315 23.7857 49.0769 24.6429 48.2851L38.4454 35.5348C39.7264 34.3515 41.8025 35.2601 41.8025 37.0039V62.5044C41.8025 64.2483 39.7264 65.1568 38.4454 63.9735L24.6429 51.2233Z" fill="black" stroke="black" stroke-width="2" stroke-linecap="round" stroke-linejoin="round"/>
<path d="M22 22.5C22 21.1193 23.1193 20 24.5 20H77.5C78.8807 20 80 21.1193 80 22.5C80 23.8807 78.8807 25 77.5 25H24.5C23.1193 25 22 23.8807 22 22.5Z" fill="black"/>
<path d="M22 77.5C22 76.1193 23.1193 75 24.5 75H77.5C78.8807 75 80 76.1193 80 77.5C80 78.8807 78.8807 80 77.5 80H24.5C23.1193 80 22 78.8807 22 77.5Z" fill="black"/>
<path d="M50 40.5C50 39.1193 51.1193 38 52.5 38H77.5C78.8807 38 80 39.1193 80 40.5C80 41.8807 78.8807 43 77.5 43H52.5C51.1193 43 50 41.8807 50 40.5Z" fill="black"/>
<path d="M50 59.5C50 58.1193 51.1193 57 52.5 57H77.5C78.8807 57 80 58.1193 80 59.5C80 60.8807 78.8807 62 77.5 62H52.5C51.1193 62 50 60.8807 50 59.5Z" fill="black"/>
</svg>
