<svg width="100" height="100" viewbox="0 0 100 100">
  <path d="M34.454 46.962a4 4 0 0 1 0 6.075L21.352 64.262c-2.595 2.223-6.602.38-6.602-3.038v-22.45c0-3.417 4.008-5.26 6.602-3.038L34.454 46.96zM14 18.443C14 16.54 15.644 15 17.672 15h63.655C83.356 15 85 16.54 85 18.443s-1.644 3.443-3.672 3.443H17.672c-2.028 0-3.672-1.54-3.672-3.443zm0 63.114c0-1.9 1.644-3.443 3.672-3.443h63.655c2.028 0 3.672 1.54 3.672 3.443S83.356 85 81.328 85H17.672C15.644 85 14 83.46 14 81.557zm37.948-20.655c0-1.9 1.644-3.443 3.672-3.443h25.707C83.356 57.46 85 59 85 60.902s-1.644 3.443-3.672 3.443H55.62c-2.028 0-3.672-1.54-3.672-3.443zm0-22.952c0-1.9 1.644-3.443 3.672-3.443h25.707c2.028 0 3.672 1.54 3.672 3.443s-1.644 3.443-3.672 3.443H55.62c-2.028 0-3.672-1.54-3.672-3.443z" />
</svg>